# xmcd
#
# Track frame offsets: 
#        150
#        7857
#        12312
#        16212
#        26267
#        30270
#        38615
#        40802
#        45442
#        58295
#        64052
#        75395
#        82462
#        87270
#        98590
#        102212
#        106210
#        116762
#        124872
#        131017
#        140290
#        151815
#        157242
#        167180
#        187227
#        199502
#        207927
#        217945
#        242275
#        250772
#        271457
#        296492
#        319587
#
# Disc length: 4573 seconds
#
# Revision: 2
# Processed by: cddbd v1.5.2PL0 Copyright (c) Steve Scherf et al.
# Submitted via: ExactAudioCopy v1.0b2
#
DISCID=b211db21
DTITLE=Various Artist - Space Batlleship Yamato Eternal Edition File No.5
DYEAR=2000
DGENRE=Soundtrack
TTITLE0=Opening
TTITLE1=Main Title ~ Salute for Yamato
TTITLE2=Hero's Hill
TTITLE3=Yamato Meditation ~ With Great Love
TTITLE4=Tension Before Departure
TTITLE5=Yamato!! The New Journey (TV Size)
TTITLE6=Young Eagles
TTITLE7=The Universe Spread to Infinity
TTITLE8=Desslar's Recollections
TTITLE9=Trespassers
TTITLE10=Desslar Attacks
TTITLE11=Destruction of Planet Gamilas
TTITLE12=The Dark Nebula Empire
TTITLE13=The New Cosmo Tigers
TTITLE14=March of the Underwear
TTITLE15=Tranquility
TTITLE16=Wandering Iscandar
TTITLE17=Trial
TTITLE18=Desslar's Loneliness
TTITLE19=Yamato Arrives
TTITLE20=Great Battle
TTITLE21=Iscandar in Crisis
TTITLE22=Reunion
TTITLE23=The Autoplanet Goruba
TTITLE24=Menace of the Goruba
TTITLE25=Desslar's Thoughts
TTITLE26=Mamoru and Stasha
TTITLE27=Parting
TTITLE28=Sasha My Love (TV Size)
TTITLE29=Space Battleship Yamato: The Universe Spread to Infinity
TTITLE30=Home: The Rival ~ The White Comet ~ Search Boat
TTITLE31=Thoughts: Face in the Stars ~ Iscandar ~ From Yamato with Lov
TTITLE31=e
TTITLE32=The New Journey: Love of Life ~ Departure ~ Yamato!! The New 
TTITLE32=Journey
EXTD=YEAR: 2000.12.30
EXTT0=
EXTT1=
EXTT2=
EXTT3=
EXTT4=
EXTT5=
EXTT6=
EXTT7=
EXTT8=
EXTT9=
EXTT10=
EXTT11=
EXTT12=
EXTT13=
EXTT14=
EXTT15=
EXTT16=
EXTT17=
EXTT18=
EXTT19=
EXTT20=
EXTT21=
EXTT22=
EXTT23=
EXTT24=
EXTT25=
EXTT26=
EXTT27=
EXTT28=
EXTT29=
EXTT30=
EXTT31=
EXTT32=
PLAYORDER=
